<svg xmlns="http://www.w3.org/2000/svg" data-name="Layer 1" viewBox="0 0 100 125" x="0px" y="0px"><title>Essential Icons</title><path d="M50,91A41,41,0,1,1,91,50,41,41,0,0,1,50,91Zm0-76A35,35,0,1,0,85,50,35,35,0,0,0,50,15Z"/><path d="M67.5,70.5a3,3,0,0,1-2.12-.88l-35-35a3,3,0,0,1,4.24-4.24l35,35A3,3,0,0,1,67.5,70.5Z"/><path d="M32.5,70.5a3,3,0,0,1-2.12-5.12l35-35a3,3,0,0,1,4.24,4.24l-35,35A3,3,0,0,1,32.5,70.5Z"/><text x="0" y="115" fill="#000000" font-size="5px" font-weight="bold" font-family="'Helvetica Neue', Helvetica, Arial-Unicode, Arial, Sans-serif">Created by Blair Adams</text><text x="0" y="120" fill="#000000" font-size="5px" font-weight="bold" font-family="'Helvetica Neue', Helvetica, Arial-Unicode, Arial, Sans-serif">from the Noun Project</text></svg>